<mxfile host="app.diagrams.net" modified="2024-05-02T14:14:39.360Z" agent="Mozilla/5.0 (Windows NT 10.0; Win64; x64) AppleWebKit/537.36 (KHTML, like Gecko) Chrome/124.0.0.0 Safari/537.36" etag="oJyFWPUd3E5iN7xp_zwa" version="24.3.1" type="device">
  <diagram name="Page-1" id="E9r09oTAi5jIKzlJzOQj">
    <mxGraphModel dx="1050" dy="522" grid="1" gridSize="10" guides="1" tooltips="1" connect="1" arrows="1" fold="1" page="1" pageScale="1" pageWidth="850" pageHeight="1100" math="0" shadow="0">
      <root>
        <mxCell id="0" />
        <mxCell id="1" parent="0" />
        <mxCell id="Xs_zgbl_qjZZ3OF674t--3" value="" style="edgeStyle=orthogonalEdgeStyle;rounded=0;orthogonalLoop=1;jettySize=auto;html=1;" edge="1" parent="1" target="Xs_zgbl_qjZZ3OF674t--2">
          <mxGeometry relative="1" as="geometry">
            <mxPoint x="420" y="180" as="sourcePoint" />
          </mxGeometry>
        </mxCell>
        <mxCell id="Xs_zgbl_qjZZ3OF674t--7" value="" style="edgeStyle=orthogonalEdgeStyle;rounded=0;orthogonalLoop=1;jettySize=auto;html=1;" edge="1" parent="1" source="Xs_zgbl_qjZZ3OF674t--2" target="Xs_zgbl_qjZZ3OF674t--8">
          <mxGeometry relative="1" as="geometry">
            <mxPoint x="420" y="400" as="targetPoint" />
          </mxGeometry>
        </mxCell>
        <mxCell id="Xs_zgbl_qjZZ3OF674t--2" value="Input n" style="shape=parallelogram;perimeter=parallelogramPerimeter;whiteSpace=wrap;html=1;fixedSize=1;rounded=1;" vertex="1" parent="1">
          <mxGeometry x="360" y="260" width="120" height="60" as="geometry" />
        </mxCell>
        <mxCell id="Xs_zgbl_qjZZ3OF674t--10" value="" style="edgeStyle=orthogonalEdgeStyle;rounded=0;orthogonalLoop=1;jettySize=auto;html=1;" edge="1" parent="1" source="Xs_zgbl_qjZZ3OF674t--8">
          <mxGeometry relative="1" as="geometry">
            <mxPoint x="420" y="510" as="targetPoint" />
          </mxGeometry>
        </mxCell>
        <mxCell id="Xs_zgbl_qjZZ3OF674t--8" value="result = n*n" style="rounded=0;whiteSpace=wrap;html=1;" vertex="1" parent="1">
          <mxGeometry x="360" y="370" width="120" height="60" as="geometry" />
        </mxCell>
        <mxCell id="Xs_zgbl_qjZZ3OF674t--12" value="" style="edgeStyle=orthogonalEdgeStyle;rounded=0;orthogonalLoop=1;jettySize=auto;html=1;" edge="1" parent="1">
          <mxGeometry relative="1" as="geometry">
            <mxPoint x="420" y="570" as="sourcePoint" />
            <mxPoint x="420" y="650" as="targetPoint" />
          </mxGeometry>
        </mxCell>
        <mxCell id="Xs_zgbl_qjZZ3OF674t--16" value="START" style="ellipse;whiteSpace=wrap;html=1;" vertex="1" parent="1">
          <mxGeometry x="360" y="100" width="120" height="80" as="geometry" />
        </mxCell>
        <mxCell id="Xs_zgbl_qjZZ3OF674t--18" value="END" style="ellipse;whiteSpace=wrap;html=1;" vertex="1" parent="1">
          <mxGeometry x="360" y="650" width="120" height="80" as="geometry" />
        </mxCell>
        <mxCell id="Xs_zgbl_qjZZ3OF674t--19" value="OUTPUT result" style="shape=parallelogram;perimeter=parallelogramPerimeter;whiteSpace=wrap;html=1;fixedSize=1;" vertex="1" parent="1">
          <mxGeometry x="360" y="510" width="120" height="60" as="geometry" />
        </mxCell>
        <mxCell id="Xs_zgbl_qjZZ3OF674t--27" value="" style="edgeStyle=orthogonalEdgeStyle;rounded=0;orthogonalLoop=1;jettySize=auto;html=1;" edge="1" parent="1" source="Xs_zgbl_qjZZ3OF674t--20" target="Xs_zgbl_qjZZ3OF674t--21">
          <mxGeometry relative="1" as="geometry" />
        </mxCell>
        <mxCell id="Xs_zgbl_qjZZ3OF674t--20" value="START" style="ellipse;whiteSpace=wrap;html=1;" vertex="1" parent="1">
          <mxGeometry x="620" y="90" width="120" height="80" as="geometry" />
        </mxCell>
        <mxCell id="Xs_zgbl_qjZZ3OF674t--28" value="" style="edgeStyle=orthogonalEdgeStyle;rounded=0;orthogonalLoop=1;jettySize=auto;html=1;" edge="1" parent="1" source="Xs_zgbl_qjZZ3OF674t--21" target="Xs_zgbl_qjZZ3OF674t--22">
          <mxGeometry relative="1" as="geometry" />
        </mxCell>
        <mxCell id="Xs_zgbl_qjZZ3OF674t--21" value="INPUT&lt;div&gt;d = chiều dài&lt;/div&gt;&lt;div&gt;r = chiều rộng&lt;/div&gt;" style="shape=parallelogram;perimeter=parallelogramPerimeter;whiteSpace=wrap;html=1;fixedSize=1;" vertex="1" parent="1">
          <mxGeometry x="620" y="210" width="120" height="60" as="geometry" />
        </mxCell>
        <mxCell id="Xs_zgbl_qjZZ3OF674t--29" value="" style="edgeStyle=orthogonalEdgeStyle;rounded=0;orthogonalLoop=1;jettySize=auto;html=1;" edge="1" parent="1" source="Xs_zgbl_qjZZ3OF674t--22" target="Xs_zgbl_qjZZ3OF674t--23">
          <mxGeometry relative="1" as="geometry" />
        </mxCell>
        <mxCell id="Xs_zgbl_qjZZ3OF674t--22" value="h = (d+r)*2&lt;div&gt;s = d*r&lt;/div&gt;" style="rounded=0;whiteSpace=wrap;html=1;" vertex="1" parent="1">
          <mxGeometry x="620" y="310" width="120" height="60" as="geometry" />
        </mxCell>
        <mxCell id="Xs_zgbl_qjZZ3OF674t--30" value="" style="edgeStyle=orthogonalEdgeStyle;rounded=0;orthogonalLoop=1;jettySize=auto;html=1;" edge="1" parent="1" source="Xs_zgbl_qjZZ3OF674t--23" target="Xs_zgbl_qjZZ3OF674t--24">
          <mxGeometry relative="1" as="geometry" />
        </mxCell>
        <mxCell id="Xs_zgbl_qjZZ3OF674t--23" value="OUTPUT h, s" style="shape=parallelogram;perimeter=parallelogramPerimeter;whiteSpace=wrap;html=1;fixedSize=1;" vertex="1" parent="1">
          <mxGeometry x="620" y="410" width="120" height="60" as="geometry" />
        </mxCell>
        <mxCell id="Xs_zgbl_qjZZ3OF674t--24" value="END" style="ellipse;whiteSpace=wrap;html=1;" vertex="1" parent="1">
          <mxGeometry x="620" y="500" width="120" height="80" as="geometry" />
        </mxCell>
      </root>
    </mxGraphModel>
  </diagram>
</mxfile>
